<svg xmlns="http://www.w3.org/2000/svg" xmlns:xlink="http://www.w3.org/1999/xlink" contentStyleType="text/css" data-diagram-type="SEQUENCE" height="736px" preserveAspectRatio="none" style="width:1629px;height:736px;background:#FFFFFF;" version="1.1" viewBox="0 0 1629 736" width="1629px" zoomAndPan="magnify"><defs/><g><g><title>TicketController</title><rect fill="#FFFFFF" height="545.9219" style="stroke:#181818;stroke-width:1;" width="10" x="232.6563" y="165.5313"/></g><g><title>TicketServiceImpl</title><rect fill="#FFFFFF" height="480.2344" style="stroke:#181818;stroke-width:1;" width="10" x="476.1719" y="198.375"/></g><g><title>ChainContext</title><rect fill="#FFFFFF" height="348.8594" style="stroke:#181818;stroke-width:1;" width="10" x="788.3516" y="231.2188"/></g><g><title>ParamNotNullHandler</title><rect fill="#FFFFFF" height="34.666" style="stroke:#181818;stroke-width:1;" width="10" x="964.7969" y="297.5723"/></g><g><title>ParamVerifyHandler</title><rect fill="#FFFFFF" height="34.666" style="stroke:#181818;stroke-width:1;" width="10" x="1149.1875" y="366.9043"/></g><g><title>ParamStockHandler</title><rect fill="#FFFFFF" height="34.666" style="stroke:#181818;stroke-width:1;" width="10" x="1325.25" y="436.2363"/></g><g><title>RepeatHandler</title><rect fill="#FFFFFF" height="34.666" style="stroke:#181818;stroke-width:1;" width="10" x="1481.3359" y="505.5684"/></g><g><title>MySQL</title><rect fill="#FFFFFF" height="32.8438" style="stroke:#181818;stroke-width:1;" width="10" x="1583.9531" y="612.9219"/></g><rect fill="none" height="302.0156" style="stroke:#000000;stroke-width:1.5;" width="882.9414" x="723.3945" y="246.2188"/><g><title>..</title><rect fill="#000000" fill-opacity="0.00000" height="645.6094" width="8" x="20" y="83.8438"/><line style="stroke:#181818;stroke-width:0.5;stroke-dasharray:5,5;" x1="24" x2="24" y1="83.8438" y2="729.4531"/></g><g><title>TicketController</title><rect fill="#000000" fill-opacity="0.00000" height="645.6094" width="8" x="233.6563" y="83.8438"/><line style="stroke:#181818;stroke-width:0.5;stroke-dasharray:5,5;" x1="237.1133" x2="237.1133" y1="83.8438" y2="729.4531"/></g><g><title>TicketServiceImpl</title><rect fill="#000000" fill-opacity="0.00000" height="645.6094" width="8" x="477.1719" y="83.8438"/><line style="stroke:#181818;stroke-width:0.5;stroke-dasharray:5,5;" x1="480.4102" x2="480.4102" y1="83.8438" y2="729.4531"/></g><g><title>ChainContext</title><rect fill="#000000" fill-opacity="0.00000" height="645.6094" width="8" x="789.3516" y="83.8438"/><line style="stroke:#181818;stroke-width:0.5;stroke-dasharray:5,5;" x1="792.3945" x2="792.3945" y1="83.8438" y2="729.4531"/></g><g><title>ParamNotNullHandler</title><rect fill="#000000" fill-opacity="0.00000" height="645.6094" width="8" x="965.7969" y="83.8438"/><line style="stroke:#181818;stroke-width:0.5;stroke-dasharray:5,5;" x1="969.1406" x2="969.1406" y1="83.8438" y2="729.4531"/></g><g><title>ParamVerifyHandler</title><rect fill="#000000" fill-opacity="0.00000" height="645.6094" width="8" x="1150.1875" y="83.8438"/><line style="stroke:#181818;stroke-width:0.5;stroke-dasharray:5,5;" x1="1153.4531" x2="1153.4531" y1="83.8438" y2="729.4531"/></g><g><title>ParamStockHandler</title><rect fill="#000000" fill-opacity="0.00000" height="645.6094" width="8" x="1326.25" y="83.8438"/><line style="stroke:#181818;stroke-width:0.5;stroke-dasharray:5,5;" x1="1329.9219" x2="1329.9219" y1="83.8438" y2="729.4531"/></g><g><title>RepeatHandler</title><rect fill="#000000" fill-opacity="0.00000" height="645.6094" width="8" x="1482.3359" y="83.8438"/><line style="stroke:#181818;stroke-width:0.5;stroke-dasharray:5,5;" x1="1485.5781" x2="1485.5781" y1="83.8438" y2="729.4531"/></g><g><title>MySQL</title><rect fill="#000000" fill-opacity="0.00000" height="645.6094" width="8" x="1584.9531" y="83.8438"/><line style="stroke:#181818;stroke-width:0.5;stroke-dasharray:5,5;" x1="1588.0938" x2="1588.0938" y1="83.8438" y2="729.4531"/></g><g class="participant participant-head" data-participant="User"><text fill="#000000" font-family="sans-serif" font-size="16" lengthAdjust="spacing" textLength="32" x="5" y="80.4688">&#29992;&#25143;</text><ellipse cx="24" cy="13.5" fill="#E2E2F0" rx="8" ry="8" style="stroke:#181818;stroke-width:0.5;"/><path d="M24,21.5 L24,48.5 M11,29.5 L37,29.5 M24,48.5 L11,63.5 M24,48.5 L37,63.5" fill="none" style="stroke:#181818;stroke-width:0.5;"/></g><g class="participant participant-head" data-participant="Controller"><rect fill="#E2E2F0" height="32.8438" rx="2.5" ry="2.5" style="stroke:#181818;stroke-width:0.5;" width="139.0859" x="168.1133" y="50"/><text fill="#000000" font-family="sans-serif" font-size="16" lengthAdjust="spacing" textLength="125.0859" x="175.1133" y="72.4688">TicketController</text></g><g class="participant participant-head" data-participant="Service"><rect fill="#E2E2F0" height="32.8438" rx="2.5" ry="2.5" style="stroke:#181818;stroke-width:0.5;" width="149.5234" x="406.4102" y="50"/><text fill="#000000" font-family="sans-serif" font-size="16" lengthAdjust="spacing" textLength="135.5234" x="413.4102" y="72.4688">TicketServiceImpl</text></g><g class="participant participant-head" data-participant="Manager"><rect fill="#E2E2F0" height="32.8438" rx="2.5" ry="2.5" style="stroke:#181818;stroke-width:0.5;" width="119.9141" x="733.3945" y="50"/><text fill="#000000" font-family="sans-serif" font-size="16" lengthAdjust="spacing" textLength="105.9141" x="740.3945" y="72.4688">ChainContext</text></g><g class="participant participant-head" data-participant="Handler1"><rect fill="#E2E2F0" height="32.8438" rx="2.5" ry="2.5" style="stroke:#181818;stroke-width:0.5;" width="181.3125" x="879.1406" y="50"/><text fill="#000000" font-family="sans-serif" font-size="16" lengthAdjust="spacing" textLength="167.3125" x="886.1406" y="72.4688">ParamNotNullHandler</text></g><g class="participant participant-head" data-participant="Handler2"><rect fill="#E2E2F0" height="32.8438" rx="2.5" ry="2.5" style="stroke:#181818;stroke-width:0.5;" width="167.4688" x="1070.4531" y="50"/><text fill="#000000" font-family="sans-serif" font-size="16" lengthAdjust="spacing" textLength="153.4688" x="1077.4531" y="72.4688">ParamVerifyHandler</text></g><g class="participant participant-head" data-participant="Handler3"><rect fill="#E2E2F0" height="32.8438" rx="2.5" ry="2.5" style="stroke:#181818;stroke-width:0.5;" width="164.6563" x="1247.9219" y="50"/><text fill="#000000" font-family="sans-serif" font-size="16" lengthAdjust="spacing" textLength="150.6563" x="1254.9219" y="72.4688">ParamStockHandler</text></g><g class="participant participant-head" data-participant="Handler4"><rect fill="#E2E2F0" height="32.8438" rx="2.5" ry="2.5" style="stroke:#181818;stroke-width:0.5;" width="127.5156" x="1422.5781" y="50"/><text fill="#000000" font-family="sans-serif" font-size="16" lengthAdjust="spacing" textLength="113.5156" x="1429.5781" y="72.4688">RepeatHandler</text></g><g class="participant participant-head" data-participant="DB"><text fill="#000000" font-family="sans-serif" font-size="16" lengthAdjust="spacing" textLength="51.7188" x="1560.0938" y="80.4688">MySQL</text><path d="M1570.9531,29 C1570.9531,19 1588.9531,19 1588.9531,19 C1588.9531,19 1606.9531,19 1606.9531,29 L1606.9531,55 C1606.9531,65 1588.9531,65 1588.9531,65 C1588.9531,65 1570.9531,65 1570.9531,55 L1570.9531,29" fill="#E2E2F0" style="stroke:#181818;stroke-width:0.5;"/><path d="M1570.9531,29 C1570.9531,39 1588.9531,39 1588.9531,39 C1588.9531,39 1606.9531,39 1606.9531,29" fill="none" style="stroke:#181818;stroke-width:0.5;"/></g><g><title>TicketController</title><rect fill="#FFFFFF" height="545.9219" style="stroke:#181818;stroke-width:1;" width="10" x="232.6563" y="165.5313"/></g><g><title>TicketServiceImpl</title><rect fill="#FFFFFF" height="480.2344" style="stroke:#181818;stroke-width:1;" width="10" x="476.1719" y="198.375"/></g><g><title>ChainContext</title><rect fill="#FFFFFF" height="348.8594" style="stroke:#181818;stroke-width:1;" width="10" x="788.3516" y="231.2188"/></g><g><title>ParamNotNullHandler</title><rect fill="#FFFFFF" height="34.666" style="stroke:#181818;stroke-width:1;" width="10" x="964.7969" y="297.5723"/></g><g><title>ParamVerifyHandler</title><rect fill="#FFFFFF" height="34.666" style="stroke:#181818;stroke-width:1;" width="10" x="1149.1875" y="366.9043"/></g><g><title>ParamStockHandler</title><rect fill="#FFFFFF" height="34.666" style="stroke:#181818;stroke-width:1;" width="10" x="1325.25" y="436.2363"/></g><g><title>RepeatHandler</title><rect fill="#FFFFFF" height="34.666" style="stroke:#181818;stroke-width:1;" width="10" x="1481.3359" y="505.5684"/></g><g><title>MySQL</title><rect fill="#FFFFFF" height="32.8438" style="stroke:#181818;stroke-width:1;" width="10" x="1583.9531" y="612.9219"/></g><rect fill="#EEEEEE" height="3" style="stroke:#EEEEEE;stroke-width:1;" width="1622.8125" x="0" y="116.2656"/><line style="stroke:#000000;stroke-width:1;" x1="0" x2="1622.8125" y1="116.2656" y2="116.2656"/><line style="stroke:#000000;stroke-width:1;" x1="0" x2="1622.8125" y1="119.2656" y2="119.2656"/><rect fill="#EEEEEE" height="26.8438" style="stroke:#000000;stroke-width:2;" width="115.2734" x="753.7695" y="103.8438"/><text fill="#000000" font-family="sans-serif" font-size="16" font-weight="bold" lengthAdjust="spacing" textLength="96" x="759.7695" y="123.3125">&#36141;&#31080;&#27969;&#31243;&#24320;&#22987;</text><g class="message" data-participant-1="User" data-participant-2="Controller"><polygon fill="#181818" points="220.6563,161.5313,230.6563,165.5313,220.6563,169.5313" style="stroke:#181818;stroke-width:1;"/><line style="stroke:#181818;stroke-width:1;" x1="24" x2="226.6563" y1="165.5313" y2="165.5313"/><text fill="#000000" font-family="sans-serif" font-size="16" font-weight="bold" lengthAdjust="spacing" textLength="10.5547" x="33.5" y="160.1563">1</text><text fill="#000000" font-family="sans-serif" font-size="16" lengthAdjust="spacing" textLength="175.1016" x="48.0547" y="160.1563">&#25552;&#20132;&#36141;&#31080;&#35831;&#27714; (ReqDTO)</text></g><g class="message" data-participant-1="Controller" data-participant-2="Service"><polygon fill="#181818" points="464.1719,194.375,474.1719,198.375,464.1719,202.375" style="stroke:#181818;stroke-width:1;"/><line style="stroke:#181818;stroke-width:1;" x1="242.6563" x2="470.1719" y1="198.375" y2="198.375"/><text fill="#000000" font-family="sans-serif" font-size="16" font-weight="bold" lengthAdjust="spacing" textLength="10.5547" x="252.1563" y="193">2</text><text fill="#000000" font-family="sans-serif" font-size="16" lengthAdjust="spacing" textLength="199.9609" x="266.7109" y="193">purchaseTickets(ReqDTO)</text></g><g class="message" data-participant-1="Service" data-participant-2="Manager"><polygon fill="#181818" points="776.3516,227.2188,786.3516,231.2188,776.3516,235.2188" style="stroke:#181818;stroke-width:1;"/><line style="stroke:#181818;stroke-width:1;" x1="486.1719" x2="782.3516" y1="231.2188" y2="231.2188"/><text fill="#000000" font-family="sans-serif" font-size="16" font-weight="bold" lengthAdjust="spacing" textLength="10.5547" x="495.6719" y="225.8438">3</text><text fill="#000000" font-family="sans-serif" font-size="16" lengthAdjust="spacing" textLength="268.625" x="510.2266" y="225.8438">handler("TICKET_FILTER", ReqDTO)</text></g><path d="M723.3945,246.2188 L885.668,246.2188 L885.668,257.0625 L875.668,267.0625 L723.3945,267.0625 L723.3945,246.2188" fill="#EEEEEE" style="stroke:#000000;stroke-width:1.5;"/><rect fill="none" height="302.0156" style="stroke:#000000;stroke-width:1.5;" width="882.9414" x="723.3945" y="246.2188"/><text fill="#000000" font-family="sans-serif" font-size="16" font-weight="bold" lengthAdjust="spacing" textLength="112" x="738.3945" y="262.6875">&#36131;&#20219;&#38142;&#25191;&#34892;&#36807;&#31243;</text><text fill="#000000" font-family="sans-serif" font-size="16" font-weight="bold" lengthAdjust="spacing" textLength="202.7031" x="900.668" y="263.6875">[Loop through Handlers]</text><g class="message" data-participant-1="Manager" data-participant-2="Handler1"><polygon fill="#181818" points="952.7969,293.5723,962.7969,297.5723,952.7969,301.5723" style="stroke:#181818;stroke-width:1;"/><line style="stroke:#181818;stroke-width:1;" x1="798.3516" x2="958.7969" y1="297.5723" y2="297.5723"/><text fill="#000000" font-family="sans-serif" font-size="16" font-weight="bold" lengthAdjust="spacing" textLength="10.5547" x="807.8516" y="292.1973">4</text><text fill="#000000" font-family="sans-serif" font-size="16" lengthAdjust="spacing" textLength="132.8906" x="822.4063" y="292.1973">handler(ReqDTO)</text></g><path d="M979,275.9063 L979,301.9063 L1084,301.9063 L1084,285.9063 L1074,275.9063 L979,275.9063" fill="#FEFFDD" style="stroke:#181818;stroke-width:0.5;"/><path d="M1074,275.9063 L1074,285.9063 L1084,285.9063 L1074,275.9063" fill="#FEFFDD" style="stroke:#181818;stroke-width:0.5;"/><text fill="#000000" font-family="sans-serif" font-size="14" lengthAdjust="spacing" textLength="84" x="985" y="294.4414">&#26657;&#39564;&#21442;&#25968;&#38750;&#31354;</text><g class="message" data-participant-1="Handler1" data-participant-2="Manager"><polygon fill="#181818" points="809.3516,328.2383,799.3516,332.2383,809.3516,336.2383" style="stroke:#181818;stroke-width:1;"/><line style="stroke:#181818;stroke-width:1;stroke-dasharray:2,2;" x1="803.3516" x2="968.7969" y1="332.2383" y2="332.2383"/><text fill="#000000" font-family="sans-serif" font-size="16" font-weight="bold" lengthAdjust="spacing" textLength="10.5547" x="820.6602" y="326.8633">5</text><text fill="#000000" font-family="sans-serif" font-size="16" lengthAdjust="spacing" textLength="112.2734" x="835.2148" y="326.8633">void (&#26657;&#39564;&#36890;&#36807;)</text></g><g class="message" data-participant-1="Manager" data-participant-2="Handler2"><polygon fill="#181818" points="1137.1875,362.9043,1147.1875,366.9043,1137.1875,370.9043" style="stroke:#181818;stroke-width:1;"/><line style="stroke:#181818;stroke-width:1;" x1="798.3516" x2="1143.1875" y1="366.9043" y2="366.9043"/><text fill="#000000" font-family="sans-serif" font-size="16" font-weight="bold" lengthAdjust="spacing" textLength="10.5547" x="900.0469" y="361.5293">6</text><text fill="#000000" font-family="sans-serif" font-size="16" lengthAdjust="spacing" textLength="132.8906" x="914.6016" y="361.5293">handler(ReqDTO)</text></g><path d="M1164,345.2383 L1164,371.2383 L1283,371.2383 L1283,355.2383 L1273,345.2383 L1164,345.2383" fill="#FEFFDD" style="stroke:#181818;stroke-width:0.5;"/><path d="M1273,345.2383 L1273,355.2383 L1283,355.2383 L1273,345.2383" fill="#FEFFDD" style="stroke:#181818;stroke-width:0.5;"/><text fill="#000000" font-family="sans-serif" font-size="14" lengthAdjust="spacing" textLength="98" x="1170" y="363.7734">&#26657;&#39564;&#21442;&#25968;&#27491;&#30830;&#24615;</text><g class="message" data-participant-1="Handler2" data-participant-2="Manager"><polygon fill="#181818" points="809.3516,397.5703,799.3516,401.5703,809.3516,405.5703" style="stroke:#181818;stroke-width:1;"/><line style="stroke:#181818;stroke-width:1;stroke-dasharray:2,2;" x1="803.3516" x2="1153.1875" y1="401.5703" y2="401.5703"/><text fill="#000000" font-family="sans-serif" font-size="16" font-weight="bold" lengthAdjust="spacing" textLength="10.5547" x="912.8555" y="396.1953">7</text><text fill="#000000" font-family="sans-serif" font-size="16" lengthAdjust="spacing" textLength="112.2734" x="927.4102" y="396.1953">void (&#26657;&#39564;&#36890;&#36807;)</text></g><g class="message" data-participant-1="Manager" data-participant-2="Handler3"><polygon fill="#181818" points="1313.25,432.2363,1323.25,436.2363,1313.25,440.2363" style="stroke:#181818;stroke-width:1;"/><line style="stroke:#181818;stroke-width:1;" x1="798.3516" x2="1319.25" y1="436.2363" y2="436.2363"/><text fill="#000000" font-family="sans-serif" font-size="16" font-weight="bold" lengthAdjust="spacing" textLength="10.5547" x="988.0781" y="430.8613">8</text><text fill="#000000" font-family="sans-serif" font-size="16" lengthAdjust="spacing" textLength="132.8906" x="1002.6328" y="430.8613">handler(ReqDTO)</text></g><path d="M1340,414.5703 L1340,440.5703 L1417,440.5703 L1417,424.5703 L1407,414.5703 L1340,414.5703" fill="#FEFFDD" style="stroke:#181818;stroke-width:0.5;"/><path d="M1407,414.5703 L1407,424.5703 L1417,424.5703 L1407,414.5703" fill="#FEFFDD" style="stroke:#181818;stroke-width:0.5;"/><text fill="#000000" font-family="sans-serif" font-size="14" lengthAdjust="spacing" textLength="56" x="1346" y="433.1055">&#26657;&#39564;&#20313;&#31080;</text><g class="message" data-participant-1="Handler3" data-participant-2="Manager"><polygon fill="#181818" points="809.3516,466.9023,799.3516,470.9023,809.3516,474.9023" style="stroke:#181818;stroke-width:1;"/><line style="stroke:#181818;stroke-width:1;stroke-dasharray:2,2;" x1="803.3516" x2="1329.25" y1="470.9023" y2="470.9023"/><text fill="#000000" font-family="sans-serif" font-size="16" font-weight="bold" lengthAdjust="spacing" textLength="10.5547" x="1000.8867" y="465.5273">9</text><text fill="#000000" font-family="sans-serif" font-size="16" lengthAdjust="spacing" textLength="112.2734" x="1015.4414" y="465.5273">void (&#26657;&#39564;&#36890;&#36807;)</text></g><g class="message" data-participant-1="Manager" data-participant-2="Handler4"><polygon fill="#181818" points="1469.3359,501.5684,1479.3359,505.5684,1469.3359,509.5684" style="stroke:#181818;stroke-width:1;"/><line style="stroke:#181818;stroke-width:1;" x1="798.3516" x2="1475.3359" y1="505.5684" y2="505.5684"/><text fill="#000000" font-family="sans-serif" font-size="16" font-weight="bold" lengthAdjust="spacing" textLength="21.1094" x="1060.8438" y="500.1934">10</text><text fill="#000000" font-family="sans-serif" font-size="16" lengthAdjust="spacing" textLength="132.8906" x="1085.9531" y="500.1934">handler(ReqDTO)</text></g><path d="M1496,483.9023 L1496,509.9023 L1601,509.9023 L1601,493.9023 L1591,483.9023 L1496,483.9023" fill="#FEFFDD" style="stroke:#181818;stroke-width:0.5;"/><path d="M1591,483.9023 L1591,493.9023 L1601,493.9023 L1591,483.9023" fill="#FEFFDD" style="stroke:#181818;stroke-width:0.5;"/><text fill="#000000" font-family="sans-serif" font-size="14" lengthAdjust="spacing" textLength="84" x="1502" y="502.4375">&#26657;&#39564;&#37325;&#22797;&#36141;&#31080;</text><g class="message" data-participant-1="Handler4" data-participant-2="Manager"><polygon fill="#181818" points="809.3516,536.2344,799.3516,540.2344,809.3516,544.2344" style="stroke:#181818;stroke-width:1;"/><line style="stroke:#181818;stroke-width:1;stroke-dasharray:2,2;" x1="803.3516" x2="1485.3359" y1="540.2344" y2="540.2344"/><text fill="#000000" font-family="sans-serif" font-size="16" font-weight="bold" lengthAdjust="spacing" textLength="21.1094" x="1073.6523" y="534.8594">11</text><text fill="#000000" font-family="sans-serif" font-size="16" lengthAdjust="spacing" textLength="112.2734" x="1098.7617" y="534.8594">void (&#26657;&#39564;&#36890;&#36807;)</text></g><g class="message" data-participant-1="Manager" data-participant-2="Service"><polygon fill="#181818" points="497.1719,576.0781,487.1719,580.0781,497.1719,584.0781" style="stroke:#181818;stroke-width:1;"/><line style="stroke:#181818;stroke-width:1;stroke-dasharray:2,2;" x1="491.1719" x2="792.3516" y1="580.0781" y2="580.0781"/><text fill="#000000" font-family="sans-serif" font-size="16" font-weight="bold" lengthAdjust="spacing" textLength="21.1094" x="571.207" y="574.7031">12</text><text fill="#000000" font-family="sans-serif" font-size="16" lengthAdjust="spacing" textLength="112" x="596.3164" y="574.7031">&#36131;&#20219;&#38142;&#22788;&#29702;&#23436;&#25104;</text></g><g class="message" data-participant-1="Service" data-participant-2="DB"><polygon fill="#181818" points="1571.9531,608.9219,1581.9531,612.9219,1571.9531,616.9219" style="stroke:#181818;stroke-width:1;"/><line style="stroke:#181818;stroke-width:1;" x1="486.1719" x2="1577.9531" y1="612.9219" y2="612.9219"/><text fill="#000000" font-family="sans-serif" font-size="16" font-weight="bold" lengthAdjust="spacing" textLength="21.1094" x="942.5078" y="607.5469">13</text><text fill="#000000" font-family="sans-serif" font-size="16" lengthAdjust="spacing" textLength="160" x="967.6172" y="607.5469">&#25187;&#20943;&#24211;&#23384;&#65292;&#25554;&#20837;&#35746;&#21333;&#31561;</text></g><g class="message" data-participant-1="DB" data-participant-2="Service"><polygon fill="#181818" points="497.1719,641.7656,487.1719,645.7656,497.1719,649.7656" style="stroke:#181818;stroke-width:1;"/><line style="stroke:#181818;stroke-width:1;stroke-dasharray:2,2;" x1="491.1719" x2="1587.9531" y1="645.7656" y2="645.7656"/><text fill="#000000" font-family="sans-serif" font-size="16" font-weight="bold" lengthAdjust="spacing" textLength="21.1094" x="994.9258" y="640.3906">14</text><text fill="#000000" font-family="sans-serif" font-size="16" lengthAdjust="spacing" textLength="60.1641" x="1020.0352" y="640.3906">Success</text></g><g class="message" data-participant-1="Service" data-participant-2="Controller"><polygon fill="#181818" points="253.6563,674.6094,243.6563,678.6094,253.6563,682.6094" style="stroke:#181818;stroke-width:1;"/><line style="stroke:#181818;stroke-width:1;stroke-dasharray:2,2;" x1="247.6563" x2="480.1719" y1="678.6094" y2="678.6094"/><text fill="#000000" font-family="sans-serif" font-size="16" font-weight="bold" lengthAdjust="spacing" textLength="21.1094" x="273.7305" y="673.2344">15</text><text fill="#000000" font-family="sans-serif" font-size="16" lengthAdjust="spacing" textLength="151.2578" x="298.8398" y="673.2344">&#36820;&#22238;&#32467;&#26524; (RespDTO)</text></g><g class="message" data-participant-1="Controller" data-participant-2="User"><polygon fill="#181818" points="35,707.4531,25,711.4531,35,715.4531" style="stroke:#181818;stroke-width:1;"/><line style="stroke:#181818;stroke-width:1;stroke-dasharray:2,2;" x1="29" x2="236.6563" y1="711.4531" y2="711.4531"/><text fill="#000000" font-family="sans-serif" font-size="16" font-weight="bold" lengthAdjust="spacing" textLength="21.1094" x="70.2734" y="706.0781">16</text><text fill="#000000" font-family="sans-serif" font-size="16" lengthAdjust="spacing" textLength="96" x="95.3828" y="706.0781">&#23637;&#31034;&#36141;&#31080;&#32467;&#26524;</text></g><!--SRC=[dPLTJzDG6CVlpwSusGsOo0NRueK99l8MYO3AfZV6cD8TjeQk7Uqf4QycE62oEHH818KuDsIQR4A20JTWNsQdxQxy2fwkQtS6co7qgktvFy_pw_FM7cYMBepp4aaKo56SP1RrhKF0QLYMjEWqKe0wAqWnJk6YC80NH0HLh0Wyrg8YSwAYEGr9F9f0gig5qNrH24kGHn9kim-X6KuJyQWiuO3m6i7-EyoX96FKEl43q0D9QQVs9qc9QgVlpNW2S3oM5UWnDWlwwea7SYfygj80r1uBl13Z90mzGO6VHNY8Eb9aKKHAGzPwx2GE86LUuD5OD2OsrCtdTkbGX1CaomzwXHkg2KwYNth9uMFhKoPbFAc9uWDE2Za0pVl-3kfdI15c5Zg8lHt40IppinsqldRj58eX3dVG-K68mzmqfoBecLW8F1bl70uF0Z0m0CtZeh5Vq7-_CGfhv2nE3jRWm000LevXtpqcYV0kr3FhjNBUjZ1_dUX7Yx1t2iqD1n_Tiieap7COiMa7Z3NrrKmnTHJJ53v2UUnIg5UTEDMm-k5eoyYNNMFpS8csWdcSgrKgzOqBevGrrfV9TW4u0XgeMIKQA69deDSJ71jwE19yEJes7XoPyjo6Lo8wbQKHNUTaEL5VAfZLOgsIqvC7PZO5meginLeA-wrPNQ7PWy_7PJa6SOHAmX4d-UeB0Edb854wfoqOF8V6Khf4RljORwr1WOeGZc1QXg_P-i-KFRFrtJtZHxaXSVtsjQLWNXP2iDUsgSTtAAiT9uIkHkg2whqcglU_g7enPsHBUlo0fVNUcDRRZTPtJLfV5zhQ-JRjRnRITsD8NpT8_pKX_LqWwojfaa_ReyYY-c-CwWT82W7WehODR6iayc-jUIkbzDLrm3XXngTskaFUPUlnYddnmPR_FKkHxukrwYufVYAhXrOlf4kalC7ExF2WjM2IERAIeITKI8tqp4UIs3TBtqXwooWcMyDATnVLjoC6D9wdFo8MobfnReZBoyoiRfBFUqPbGz_xOgqnDTOe0cFkBY5sZL4tZTrujxcOx1BORbXZPWt-0m00]--></g></svg>